<svg xmlns="http://www.w3.org/2000/svg" width="500" height="500" style="width:100%;height:100%;transform:translate3d(0,0,0);content-visibility:visible" viewBox="0 0 500 500"><defs><clipPath id="b"><path d="M0 0h500v500H0z"/></clipPath><path id="a" fill="#3A3347" d="M68.85-9.21V9.21a8 8 0 0 1-8 8H19.22a2 2 0 0 0-2 2v41.64a8 8 0 0 1-8 8H-9.21a8 8 0 0 1-8-8V19.21a2 2 0 0 0-2-2h-41.64a8 8 0 0 1-8-8V-8.55c0-4.79 3.88-8.66 8.66-8.66h40.98a2 2 0 0 0 2-2v-41.64a8 8 0 0 1 8-8H9.22a8 8 0 0 1 8 8v41.64a2 2 0 0 0 2 2h41.63a8 8 0 0 1 8 8z" style="display:block" transform="rotate(45.001 -195.87 459.03)"/><mask id="c" mask-type="alpha"><use xmlns:ns1="http://www.w3.org/1999/xlink" ns1:href="#a"/></mask></defs><g clip-path="url(#b)"><path fill="#4BB3FD" d="M371.32 201.245c-17.944-42.066-59.671-71.558-108.293-71.558-45.444 0-84.843 25.775-104.454 63.487a36.508 36.508 0 0 0-11.312-1.799c-20.226 0-36.62 16.398-36.62 36.624 0 2.709.314 5.341.871 7.882-21.794 11.473-36.677 34.307-36.677 60.648 0 37.849 30.685 68.534 68.534 68.534h196.949c46.858 0 84.847-37.986 84.847-84.844 0-35.913-22.327-66.591-53.845-78.974z" style="display:block"/><g opacity=".5" style="mix-blend-mode:multiply;display:block"><path fill="#4BB3FD" d="M-19.58 49.154c0-26.341 14.883-49.175 36.677-60.648a36.745 36.745 0 0 1-.872-7.882C16.225-39.603 32.619-56 52.846-56c3.951 0 7.749.64 11.312 1.799 11.948-22.977 31.251-41.507 54.782-52.492-15.097-7.045-31.928-10.995-49.688-10.995-45.444 0-84.843 25.775-104.454 63.487A36.49 36.49 0 0 0-46.514-56c-20.226 0-36.621 16.397-36.621 36.624 0 2.709.315 5.341.872 7.882-21.795 11.473-36.677 34.307-36.677 60.648 0 37.849 30.685 68.534 68.534 68.534h99.36c-37.849 0-68.534-30.685-68.534-68.534z" opacity="1" style="mix-blend-mode:multiply" transform="translate(194.382 247.501) scale(.99999)"/></g><path fill="#3A3347" d="M68.85-9.21V9.21a8 8 0 0 1-8 8H19.22a2 2 0 0 0-2 2v41.64a8 8 0 0 1-8 8H-9.21a8 8 0 0 1-8-8V19.21a2 2 0 0 0-2-2h-41.64a8 8 0 0 1-8-8V-8.55c0-4.79 3.88-8.66 8.66-8.66h40.98a2 2 0 0 0 2-2v-41.64a8 8 0 0 1 8-8H9.22a8 8 0 0 1 8 8v41.64a2 2 0 0 0 2 2h41.63a8 8 0 0 1 8 8z" style="display:block" transform="rotate(45.001 -195.87 459.03)"/><g mask="url(#c)" opacity=".5" style="mix-blend-mode:multiply;display:block"><path fill="#3A3347" d="M267 151.001v223.997H119.502V151.001H267z" opacity="1"/></g><g class="com" style="display:none"><path/><path/><path/><path/><path/><path/><path/><path/><path/><path/><path/><path/></g></g></svg>